<svg width="96" height="96" viewBox="0 0 96 96" fill="none" xmlns="http://www.w3.org/2000/svg">
<g clip-path="url(#clip0_126_1110)">
<path d="M48 36C56.84 36 64 28.84 64 20C64 11.16 56.84 4 48 4C39.16 4 32 11.16 32 20C32 28.84 39.16 36 48 36ZM48 12C52.4 12 56 15.6 56 20C56 24.4 52.4 28 48 28C43.6 28 40 24.4 40 20C40 15.6 43.6 12 48 12ZM48 46.2C38.56 37.4 25.92 32 12 32V76C25.92 76 38.56 81.4 48 90.2C57.44 81.44 70.08 76 84 76V32C70.08 32 57.44 37.4 48 46.2ZM76 68.52C65.88 69.88 56.28 73.72 48 79.8C39.76 73.72 30.12 69.84 20 68.48V40.68C28.4 42.2 36.2 46.08 42.56 52L48 57.12L53.44 52.04C59.8 46.12 67.6 42.24 76 40.72V68.52Z" fill="black"/>
</g>
<defs>
<clipPath id="clip0_126_1110">
<rect width="96" height="96" fill="white"/>
</clipPath>
</defs>
</svg>
