<svg width="96" height="96" viewBox="0 0 96 96" fill="none" xmlns="http://www.w3.org/2000/svg">
<g clip-path="url(#clip0_135_1107)">
<path d="M56.68 20L76 39.32V76H20V20H56.68ZM56.68 12H20C15.6 12 12 15.6 12 20V76C12 80.4 15.6 84 20 84H76C80.4 84 84 80.4 84 76V39.32C84 37.2 83.16 35.16 81.64 33.68L62.32 14.36C60.84 12.84 58.8 12 56.68 12ZM28 60H68V68H28V60ZM28 44H68V52H28V44ZM28 28H56V36H28V28Z" fill="black"/>
</g>
<defs>
<clipPath id="clip0_135_1107">
<rect width="96" height="96" fill="white"/>
</clipPath>
</defs>
</svg>
